# xmcd CD database file
#
# Track frame offsets:
#	150
#	22495
#	55752
#	69031
#	114216
#	121373
#	146628
#	156019
#
# Disc length: 2257 seconds
#
# Revision: 0
# Processed by: cddbd v1.5.1PL0 Copyright (c) Steve Scherf et al.
# Submitted via: CDex 1.50Beta3
#
DISCID=6708cf08
DTITLE=the fairclough group - shepherd wheel
DYEAR=1995
DGENRE=Jazz
TTITLE0=jacpb's ladder
TTITLE1=shepherd wheel
TTITLE2=the yellow belly
TTITLE3=saint monda
TTITLE4=rattening
TTITLE5=stoneburst
TTITLE6=racing
TTITLE7=when there's nothing left to burn
EXTD=YEAR: 1995
EXTT0=
EXTT1=
EXTT2=
EXTT3=
EXTT4=
EXTT5=
EXTT6=
EXTT7=
PLAYORDER=
